<?xml version="1.0" standalone="no"?>
<!DOCTYPE svg PUBLIC "-//W3C//DTD SVG 20010904//EN"
 "http://www.w3.org/TR/2001/REC-SVG-20010904/DTD/svg10.dtd">
<svg version="1.0" xmlns="http://www.w3.org/2000/svg"
 width="416.000000pt" height="416.000000pt" viewBox="0 0 416.000000 416.000000"
 preserveAspectRatio="xMidYMid meet">
<metadata>
Created by potrace 1.14, written by Peter Selinger 2001-2017
</metadata>
<g transform="translate(0.000000,416.000000) scale(0.100000,-0.100000)"
fill="#000000" stroke="none">
<path d="M1828 3003 l-248 -205 0 -208 0 -208 393 -339 392 -338 3 -116 3
-115 -141 -120 c-77 -65 -144 -119 -149 -119 -5 0 -73 54 -150 119 l-141 119
0 76 0 76 -105 88 -105 87 0 -212 0 -213 250 -213 250 -213 250 213 250 213 0
212 0 211 -395 339 -395 338 0 112 0 112 145 125 146 126 144 -123 144 -122 1
-82 0 -82 103 -86 102 -86 3 208 c1 114 0 213 -2 219 -4 11 -481 407 -494 411
-4 1 -118 -91 -254 -204z"/>
<path d="M1060 2191 l0 -470 101 -88 c55 -48 105 -90 110 -91 6 -3 8 123 7
327 -2 182 -1 331 2 331 3 0 177 -145 386 -322 209 -178 388 -329 397 -337 16
-12 17 -4 17 125 l-1 139 -501 425 c-276 234 -505 427 -510 428 -4 2 -8 -208
-8 -467z"/>
<path d="M2840 2441 l-254 -219 -27 22 c-15 11 -129 108 -253 214 l-226 192 0
-139 0 -139 246 -208 c135 -115 249 -210 254 -212 5 -2 76 53 157 122 l148
126 3 -330 c1 -181 5 -330 8 -330 3 0 50 39 105 86 l99 86 0 474 c0 261 -1
474 -2 474 -2 0 -118 -99 -258 -219z"/>
</g>
</svg>
